<svg xmlns="http://www.w3.org/2000/svg" viewBox="0 0 120 120"><path fill-rule="evenodd" d="M97.732 91.986c-.195 7.032-2.392 12.403-6.591 16.114-4.2 3.71-9.62 5.566-16.26 5.566-6.738 0-12.207-1.855-16.406-5.566-4.297-3.711-6.543-9.082-6.739-16.114v-64.16c.196-7.031 2.442-12.402 6.739-16.113C62.772 8.002 68.19 6.098 74.735 6c6.738.098 12.206 2.002 16.406 5.713 4.199 3.71 6.396 9.082 6.591 16.113v64.16zm-12.158.586V27.24c.098-6.738-3.515-10.156-10.84-10.254-7.129.098-10.742 3.516-10.84 10.254v65.332c0 6.739 3.663 10.157 10.987 10.254 7.129-.097 10.693-3.515 10.693-10.254v-.146.146zM33.865 7.318v105.03H22V7.318h11.865z"/></svg>
