<svg xmlns="http://www.w3.org/2000/svg" viewBox="0 0 120 120"><path fill-rule="evenodd" d="M91.991 87.127v26.22H29.003v-7.91c-.098-8.007 2.148-15.527 6.738-22.558 4.59-7.031 11.866-14.307 21.827-21.826 8.789-6.543 14.697-11.817 17.724-15.82 2.93-4.005 4.297-7.715 4.102-11.133-.098-4.59-1.758-8.35-4.98-11.28-3.223-3.027-7.764-4.59-13.624-4.687-6.25.097-11.084 1.513-14.502 4.248-3.418 2.734-5.127 6.152-5.127 10.254l.733 5.86-11.133 4.247c-1.172-3.32-1.758-6.592-1.758-9.814.098-7.325 3.027-13.428 8.79-18.31C43.552 9.733 51.414 7.194 61.375 7c9.375.195 16.7 2.783 21.973 7.764 5.37 4.883 8.105 11.23 8.203 19.043.195 5.664-1.514 11.035-5.127 16.113-3.613 5.078-10.01 10.986-19.19 17.725-9.96 7.421-16.748 13.818-20.36 19.189-3.614 5.371-5.323 10.4-5.128 15.088h38.38V87.127H91.99z"/></svg>
