<svg xmlns="http://www.w3.org/2000/svg" viewBox="0 0 120 120"><path fill-rule="evenodd" d="M97.414 75.555c-.195 11.035-3.71 20.068-10.547 27.1-6.836 6.933-15.82 10.497-26.953 10.693-18.262-.391-30.566-7.862-36.914-22.412l9.229-7.178c6.347 12.402 15.576 18.603 27.685 18.603 7.422-.097 13.477-2.49 18.164-7.177 4.688-4.688 7.08-11.23 7.178-19.63-.684-14.257-8.35-21.728-22.998-22.411-5.957.097-11.28 2.197-15.967 6.298l-6.592-7.763 34.57-33.545H39.407v15.234H27.541V7h62.842v9.814L63.43 42.89c10.449-.098 18.7 2.734 24.756 8.496 6.054 5.664 9.13 13.72 9.228 24.17z"/></svg>
