<svg xmlns="http://www.w3.org/2000/svg" viewBox="0 0 120 120"><path fill-rule="evenodd" d="M93.383 72.797c-.098 12.695-3.125 22.656-9.082 29.883-5.86 7.226-14.111 10.888-24.756 10.986-10.45-.098-18.652-3.467-24.61-10.107-5.859-6.739-8.837-15.82-8.935-27.246v-24.17c0-14.063 2.978-25.245 8.936-33.545C40.893 10.394 49.389 6.195 60.424 6c13.574.39 22.9 5.566 27.978 15.527l-10.986 4.248c-3.906-5.664-9.814-8.545-17.725-8.642-6.152.097-11.279 2.783-15.38 8.056-4.102 5.274-6.202 12.696-6.3 22.266v1.611c5.372-7.617 13.135-11.523 23.292-11.718 9.375.097 16.992 3.271 22.851 9.521 5.957 6.25 9.033 14.893 9.229 25.928zm-12.158 2.05c-.489-16.894-7.569-25.683-21.24-26.367-6.739.098-12.11 2.637-16.114 7.618-3.906 4.98-5.908 11.572-6.006 19.775.098 8.203 2.051 14.697 5.86 19.482 3.906 4.786 9.228 7.227 15.966 7.325 6.739-.196 11.963-2.832 15.674-7.91 3.809-5.079 5.762-11.72 5.86-19.922z"/></svg>
