<svg xmlns="http://www.w3.org/2000/svg" viewBox="0 0 120 120"><path fill-rule="evenodd" d="M94.591 82.904c-.097 8.887-3.125 16.211-9.082 21.973-5.957 5.762-14.648 8.691-26.074 8.789-11.035-.098-19.531-3.027-25.488-8.789-5.957-5.762-8.936-13.086-8.936-21.973-.293-11.133 5.176-20.361 16.406-27.685-7.52-4.59-11.523-11.67-12.011-21.24.097-8.008 2.783-14.6 8.056-19.776C42.736 8.93 50.158 6.195 59.728 6c9.668.195 17.09 2.93 22.266 8.203 5.273 5.176 7.959 11.768 8.056 19.776-.488 9.57-4.492 16.65-12.011 21.24C89.367 62.543 94.884 71.77 94.59 82.904zM77.892 33.832c-.293-10.742-6.348-16.309-18.164-16.7-11.719.391-17.773 5.958-18.164 16.7.098 4.785 1.807 8.74 5.127 11.865 3.223 3.125 7.568 4.737 13.037 4.834 5.469-.097 9.863-1.709 13.184-4.834 3.222-3.125 4.882-7.08 4.98-11.865zm4.541 48.34c-.098-6.445-2.197-11.524-6.299-15.234-4.101-3.614-9.57-5.47-16.406-5.567-6.836.098-12.305 1.953-16.406 5.566-4.004 3.711-6.055 8.79-6.153 15.235.098 5.957 2.149 10.84 6.153 14.648 4.004 3.711 9.472 5.664 16.406 5.86 6.934-.196 12.451-2.149 16.553-5.86 4.004-3.808 6.054-8.691 6.152-14.648z"/></svg>
