<svg xmlns="http://www.w3.org/2000/svg" viewBox="0 0 120 120"><path d="M44.94 87.346A41.806 41.806 0 0 0 66 93a41.806 41.806 0 0 0 21.06-5.654L66 71.732 44.94 87.346zm-5.009-3.413l8.111-25.521-22.937-17.025A42.122 42.122 0 0 0 24 51c0 13.347 6.226 25.24 15.931 32.933zm-13.49-47.077h28.475l8.84-27.797c-17.254.909-31.748 12.23-37.315 27.797zM68.245 9.059l8.839 27.797h28.475C99.992 21.289 85.499 9.968 68.245 9.059zm38.65 32.328L83.958 58.412l8.11 25.52C101.775 76.24 108 64.348 108 51c0-3.308-.382-6.526-1.105-9.613zM66 98c-25.957 0-47-21.043-47-47S40.043 4 66 4s47 21.043 47 47-21.043 47-47 47z" fill="#000" fill-rule="evenodd"/></svg>
