<svg xmlns="http://www.w3.org/2000/svg" viewBox="0 0 120 120"><path fill-rule="evenodd" d="M28 66.501l7.617.293V35.3c.098-10.254 2.246-17.725 6.446-22.412 4.199-4.688 9.765-6.983 16.699-6.885 6.933-.098 12.5 2.197 16.699 6.885 4.297 4.687 6.494 12.158 6.592 22.412v49.512c-.098 5.273-.733 9.765-1.905 13.476 3.125 2.246 7.325 3.223 12.598 2.93v12.012c-7.031.683-12.988-1.075-17.871-5.274-4.2 4.2-9.57 6.201-16.113 6.006-6.934.098-12.5-2.148-16.7-6.738-4.199-4.688-6.347-12.158-6.445-22.412v-6.446L28 78.073V66.501zm18.457 1.904c7.813 1.856 14.697 6.739 20.654 14.649l3.662 4.98.44-9.375V41.452c.098-7.812-.635-13.72-2.197-17.724-1.66-4.102-5.078-6.153-10.254-6.153-5.176 0-8.545 2.051-10.108 6.153-1.66 4.004-2.392 9.912-2.197 17.724v26.953zm13.184 22.046v.073c-4.004-5.175-8.399-8.593-13.184-10.253-.098 7.226.684 12.744 2.344 16.552 1.562 3.711 4.883 5.616 9.96 5.713 3.614 0 6.3-.976 8.057-2.93l-7.177-9.082v-.073z"/></svg>
