<svg xmlns="http://www.w3.org/2000/svg" viewBox="0 0 120 120"><path fill-rule="evenodd" d="M58.82 95.879H47.65s7.701-10.65 8.537-22.337c.407-5.694.251-9.75-.015-12.412-1.165 9.795-9.108 17.374-18.734 17.374-9.008 0-16.542-6.637-18.427-15.517-.497-.862-.764-2.207-.764-4.206 0-11.096 8.228-20.092 18.377-20.092 4.481 0 8.588 1.754 11.777 4.668.827-.256 1.242-1.328 1.017-2.843-5.91-3.352-9.86-9.434-9.86-16.382C39.558 13.566 48.696 5 59.968 5s20.41 8.566 20.41 19.132c0 6.907-3.904 12.959-9.756 16.322-.27 1.514.081 2.62.839 2.967 3.208-2.99 7.369-4.794 11.915-4.794 10.15 0 18.377 8.995 18.377 20.09 0 2-.267 3.345-.764 4.207-1.885 8.88-9.42 15.517-18.427 15.517-9.582 0-17.497-7.51-18.718-17.242-.27 2.661-.43 6.733-.02 12.464C64.66 85.35 72.362 96 72.362 96H58.82v-.121z"/></svg>
