<svg xmlns="http://www.w3.org/2000/svg" viewBox="0 0 120 120"><path fill-rule="evenodd" d="M60 8.014c7.406 12.82 14.719 23.83 21.94 33.026C92.77 54.836 98 64.067 98 75.296c0 7.627-6.142 15.496-17.884 15.497-14.02 0-12.56-15.497-15.56-15.497-2.117 0-2.115 6.14.154 15.496C66.223 97.03 68.654 102.1 72.004 106H60v-.014H47.996c3.35-3.901 5.781-8.97 7.294-15.208 2.269-9.355 2.271-15.496.153-15.496-3 0-1.539 15.498-15.56 15.497-11.74 0-17.883-7.87-17.883-15.497 0-11.228 5.23-20.46 16.06-34.255C45.282 31.829 52.595 20.82 60 8v.014z"/></svg>
