<svg width="1200" height="150" viewBox="0 0 1200 150" xmlns="http://www.w3.org/2000/svg"><path d="M1155.03 59.763h12.647c4.819 0 14.254-1.205 20.88-1.607 2.81 0 4.015.402 4.015 1.808 0 1.004-1.807 2.21-4.216 2.812-9.838 2.009-14.455 4.218-24.895 13.258-3.814 3.615-9.837 9.039-13.651 13.057-.201.2-.603 1.205-.201 1.606 8.231 11.25 17.265 22.7 26.099 31.337 10.239 9.44 14.053 11.249 20.678 12.454 2.811.603 3.614 1.406 3.614 2.41 0 1.407-1.405 2.01-5.22 2.01-7.428 0-18.47-.804-30.114-.603l-6.224.2c-2.007 0-3.613-.401-3.613-1.606 0-1.407 1.204-2.01 4.015-2.813 3.413-.803 4.417-2.611 2.409-4.82-6.826-8.638-17.868-20.892-24.091-27.922-1.807-1.808-3.614-3.013-4.016-3.013-.401 0-1.004.2-1.004 1.406 0 11.048.201 18.48.603 25.11.2 4.017 2.208 8.034 8.03 9.44 3.012.804 4.015 1.406 4.015 2.612 0 1.406-1.606 2.008-5.22 2.008-5.42 0-8.431-.602-12.447-.602-4.617 0-17.867 1.406-19.875 1.406-2.61.2-4.417-.603-4.417-1.808 0-.804 1.606-2.009 4.417-2.611 6.224-2.01 7.629-3.616 8.231-11.25.402-4.419 1.205-14.261 1.205-49.013 0-30.533-.402-40.308-.602-45.732 0-5.022-.804-6.629-6.224-10.847-1.004-.804-1.405-1.607-1.405-2.21 0-1.004 2.007-2.21 3.413-2.611 6.223-1.607 14.053-4.42 17.064-5.826 1.205-.401 2.41-.803 3.212-.803.402 0 1.004 1.004 1.004 4.218 0 7.433-.803 31.671-1.004 69.235v12.856c0 .602.402 1.808 1.004 1.808 1.606 0 4.618-1.206 7.228-3.415 5.822-4.62 15.057-14.664 17.868-18.28 4.617-6.026 4.617-7.834-3.614-9.44-1.807-.603-3.413-1.407-3.413-2.411 0-1.607 2.208-1.808 3.814-1.808zM1101.53 71.55c-.886 1.895-2.071 3.48-3.203 3.48-1.406 0-4.015-2.01-5.822-3.817-5.22-4.42-11.243-9.24-19.474-9.24-6.625 0-13.05 5.423-16.463 10.043-3.212 4.018-5.822 12.053-5.822 22.096 0 14.865 10.64 35.555 31.72 35.555 12.247 0 17.868-5.223 21.683-9.24.803-.804 1.606.2 1.606.803 0 2.21-2.208 5.223-3.413 6.63-6.424 7.833-17.065 13.257-29.913 13.257-13.05 0-21.482-5.223-27.906-12.454-6.826-7.232-10.038-18.48-10.038-26.917 0-14.153 4.89-24.057 12.506-31.257-.962-1.606-2.563-4.816-2.883-8.834-.463-5.825-.073-7.657-.073-7.657.294-5.53 3.367-6.519 6.938-2.28 0 0 2.57 3.568 5.256 5.418 1.687 1.162 5.02 2.463 7.264 3.27 5.199-1.973 11.198-3.455 16.765-3.455 3.962 0 7.807.463 11.114 1.187.676-.336 1.283-.675 1.758-1.002 2.686-1.85 5.256-5.418 5.256-5.418 3.57-4.239 6.644-3.25 6.938 2.28 0 0 .39 1.832-.073 7.657s-3.62 9.953-3.62 9.953l-.101-.058zm-116.533-9.778c4.216-2.612 10.038-4.42 17.466-4.42 14.656 0 25.296 9.843 25.296 23.704 0 2.21-2.81 4.8-5.621 4.599-12.85-.603-34.13-.603-41.157 0-1.003.2-2.007 1.406-2.409 2.41-.401 1.406-.401 3.838-.401 7.052 0 16.07 12.849 33.546 29.913 33.546 11.042 0 15.459-4.219 19.675-9.843 1.205-1.607 2.81-1.607 2.81 1.004 0 1.808-1.806 4.219-2.81 5.424-7.027 9.24-18.27 15.869-29.713 15.869-22.084 0-34.732-18.882-34.732-39.974 0-14.061 5.622-30.332 21.683-39.371zm15.258-.804c-8.432 0-17.266 7.232-20.478 18.079 0 .402.401 1.607 1.004 1.607 8.03 0 19.674-.402 24.493-.402 5.019-.603 7.428-1.607 7.428-6.629-.2-7.231-7.83-12.655-12.447-12.655zm-141.752 26.11c4.35 1.83 10.105 5.623 10.105 12.867 0 4.358-3.527 6.369-6.26 16.512-1.997 7.407-.938 23.971-.938 23.971h-6.298v-28.563c-10.193 5.064-1.665 28.563-18.343 28.563h-10.755c-3.846 0-9.118-1.546-7.596-4.99 1.435-3.25 10.72-7.738 11.94-8.317 2.624-1.787 5.48-4.34 6.232-7.327 1.06-4.22 2.749-12.891 3.558-25.284.029-6.56.029-13.665.029-21.454 0-26.048-.604-39.272-1.007-46.886-.402-8.014-2.214-10.218-10.267-12.022-2.617-.6-4.63-1.402-4.63-2.604 0-1.403 1.61-2.205 4.832-2.205h13.488c10.468 0 25.566-1.602 41.067-1.602 18.32 0 35.632 3.406 50.53 13.825 14.293 10.219 24.76 28.853 24.76 49.49 0 31.859-20.936 55.302-46.703 64.318-10.871 3.807-21.34 4.609-31.606 4.609-2.83 0-5.92-.106-9.126-.267a1.984 1.984 0 0 1-.692-.035l-.32-.017.023-.077a1.968 1.968 0 0 1 1.475-3.648c2.937.16 8.53.16 13.605.16 7.227 0 16.663-2.009 23.89-6.026 18.872-9.24 27.906-30.131 27.906-56.044 0-9.441-4.216-29.328-15.86-42.786-11.042-12.254-23.89-19.083-41.758-19.083-10.038 0-16.262 2.009-17.667 2.812-1.205.803-2.61 1.808-3.012 7.834-.2 4.62-.602 11.45-.602 30.935v33.34zM743.654 60.27h12.649c4.818 0 14.254-1.205 20.88-1.607 2.81 0 4.014.402 4.014 1.808 0 1.004-1.806 2.21-4.216 2.812-9.837 2.009-14.454 4.218-24.894 13.258-3.815 3.615-9.837 9.04-13.652 13.057-.2.2-.602 1.205-.2 1.607 8.23 11.248 17.265 22.698 26.098 31.336 10.24 9.441 14.054 11.249 20.679 12.454 2.81.603 3.614 1.406 3.614 2.41 0 1.407-1.406 2.01-5.22 2.01-7.428 0-18.47-.804-30.114-.603l-6.224.2c-2.008 0-3.614-.401-3.614-1.606 0-1.407 1.205-2.01 4.015-2.813 3.413-.803 4.417-2.611 2.41-4.82-6.826-8.638-17.868-20.892-24.092-27.922-1.807-1.808-3.614-3.013-4.015-3.013-.402 0-1.004.2-1.004 1.406 0 11.048.2 18.48.602 25.11.201 4.017 2.209 8.034 8.03 9.44 3.012.804 4.016 1.406 4.016 2.612 0 1.406-1.606 2.008-5.22 2.008-5.42 0-8.432-.602-12.447-.602-4.617 0-17.868 1.406-19.875 1.406-2.61.2-4.417-.603-4.417-1.808 0-.804 1.606-2.009 4.417-2.611 6.223-2.01 7.629-3.616 8.23-11.25.402-4.419 1.205-14.261 1.205-49.013 0-30.532-.401-40.308-.602-45.732 0-5.022-.803-6.629-6.223-10.847-1.004-.804-1.406-1.607-1.406-2.21 0-1.004 2.008-2.21 3.413-2.611 6.224-1.607 14.053-4.42 17.065-5.825 1.204-.402 2.409-.804 3.212-.804.402 0 1.004 1.004 1.004 4.218 0 7.433-.803 31.672-1.004 69.235v12.856c0 .603.402 1.808 1.004 1.808 1.606 0 4.617-1.205 7.227-3.415 5.822-4.62 15.057-14.664 17.868-18.28 4.618-6.026 4.618-7.834-3.614-9.44-1.806-.603-3.413-1.407-3.413-2.411 0-1.607 2.209-1.808 3.815-1.808zm-73.461-2.812c9.034 0 17.466 2.41 20.277 4.82 1.204.603 2.409 2.813 2.409 4.62 0 2.612-2.41 8.638-4.618 8.638-1.405 0-4.015-2.008-5.822-3.816-5.22-4.42-11.242-9.24-19.474-9.24-6.625 0-13.05 5.423-16.462 10.043-3.212 4.018-5.822 12.053-5.822 22.096 0 14.865 10.64 35.555 31.72 35.555 12.247 0 17.868-5.223 21.682-9.24.804-.804 1.607.2 1.607.803 0 2.21-2.209 5.223-3.413 6.63-6.425 7.833-17.065 13.257-29.914 13.257-13.05 0-21.481-5.223-27.906-12.454-6.826-7.232-10.038-18.48-10.038-26.917 0-17.677 7.63-28.725 18.671-36.158 5.621-3.816 17.065-8.637 27.103-8.637zm7.108-7.261a2.761 2.761 0 0 1-3.193-4.47c.87-.733 1.277-1.357 1.126-1.822-.643-1.978-11.137-.341-23.44 3.656-12.302 3.997-21.754 8.842-21.111 10.82.15.465.847.73 1.984.812a2.763 2.763 0 1 1 .079 5.498c-3.578.06-6.545-.317-8.638-1.135a5.047 5.047 0 0 1-1.92-1.064c-.641-.512-1.086-1.114-1.31-1.805a3.34 3.34 0 0 1-.054-.18 5.109 5.109 0 0 1-.143-.44 3.34 3.34 0 0 1-.063-.176c-.224-.692-.218-1.44 0-2.231.16-.724.477-1.404.928-1.99 3.35-5.229 14.08-11.656 27.662-16.07 13.582-4.412 26.04-5.519 31.825-3.258a5.047 5.047 0 0 1 1.92 1.064c.641.512 1.086 1.114 1.31 1.805.02.06.038.12.054.18a5.11 5.11 0 0 1 .143.44c.022.058.043.117.062.176.225.692.219 1.44.001 2.232a5.047 5.047 0 0 1-.928 1.989c-1.208 1.885-3.375 3.926-6.29 5.972l-.004-.003zM570.961 78.17c.026.115.04.24.04.376 0 4.623-3.745 8.37-8.364 8.37a8.358 8.358 0 0 1-7.091-3.928.056.056 0 0 1-.02-.023c-3.482-8.239 11.276-15.667 19.507-20.287 4.417-2.612 10.239-5.223 14.455-5.223 5.62 0 11.643 2.812 15.86 7.432 5.219 6.227 5.42 14.06 5.42 21.694v2.41c0 6.629-.803 18.078-.603 29.327 0 9.641 4.216 12.052 8.03 12.052 2.008 0 5.22-1.004 7.228-2.21.401-.2 1.606.201 1.606 1.406 0 .402 0 1.406-.602 2.41-3.012 5.826-8.834 9.642-17.466 9.642-6.826 0-11.443-3.816-13.651-10.043-.201-.402-1.205-.803-1.406-.402-10.037 7.03-17.064 10.445-23.488 10.445-7.428 0-15.86-5.825-15.86-18.278 0-9.441 7.227-12.253 10.44-13.66l27.704-9.038c1.405-.804 2.61-1.808 2.81-3.817.201-2.41.402-12.655.201-17.074 0-3.615-3.614-14.06-14.254-14.06-4.617 0-10.439.602-10.439 12.253 0 .057-.02.134-.058.226zm-.344 41.755c0 7.03 4.617 11.851 11.443 11.851 4.015 0 7.628-.804 10.439-3.817 2.409-2.812 2.61-14.885 2.61-21.312 0-.804-.602-1.406-1.004-1.406-13.05 3.213-23.488 6.047-23.488 14.684zM522.75 140.62c.401-4.219 1.84-45.666 1.84-69.168 0-17.878 0-32.71-1.004-43.155-.401-4.017-.803-5.423-6.625-9.039-1.204-1.205-2.007-1.808-2.007-2.41 0-.804 1.004-1.808 2.007-2.21 5.02-2.611 20.077-7.231 22.686-7.231.402 0 1.205 1.406 1.205 3.214-.402 19.083-.803 36.927-.803 58.019 0 23.301 1.037 57.918 1.64 71.377-1.93 3.294-9.379 9.543-9.379 9.543s-9.458-8.688-9.56-8.94zm-8.767-40.376c0 20.288-14.254 30.533-30.917 35.354-6.826 2.812-14.053 3.615-20.678 3.615-4.618 0-14.455-.2-24.092-.401-10.64 0-16.262.602-20.88.602-2.81 0-4.817-.602-4.817-2.21 0-1.205 3.011-2.209 4.818-2.61 8.432-2.01 10.44-4.219 11.042-15.87.2-6.026.602-17.275.602-49.616 0-27.318.2-36.358-.602-42.987-1.004-9.24-4.015-11.048-12.849-11.65-2.61-.201-5.22-1.005-5.22-2.41 0-1.407 2.008-2.21 4.618-2.21l12.849-.201c7.83 0 20.678-1.206 32.121-1.206 13.05 0 21.883 2.01 29.11 6.027 10.842 6.227 14.255 16.672 14.255 24.305 0 12.455-6.424 20.891-17.266 25.913-.803.402 0 1.205.402 1.406 17.266 5.625 27.504 18.28 27.504 34.149zm-19.474 2.611c0-20.087-17.064-32.14-38.144-32.14-4.417 0-7.027.402-8.432 1.005-.803.2-1.205 1.607-1.205 3.013-.2 11.65-.2 31.939.402 44.795.2 3.214 1.204 6.629 3.413 8.236 4.818 3.214 11.042 6.428 16.261 6.428 15.258 0 27.705-13.459 27.705-31.337zm-9.235-63.677c0-18.681-14.254-26.515-29.11-26.515-1.606 0-4.417.402-6.424 1.406-.603.402-2.41 1.808-2.41 5.223 0 6.83-.803 39.572-.401 43.991 0 .402.2 2.611 4.216 2.611 6.224 0 13.05-.803 18.47-3.013 10.64-4.419 15.66-12.856 15.66-23.703zm-123.15 79.865a.271.271 0 0 0-.036-.03c-.243-.17-.346-1.44-1.432-.424a2.509 2.509 0 0 1-.783.512c-1.827 1.775-4.31 2.294-6.332.878-2.394-1.676-3.236-5.428-1.404-8.045a6.39 6.39 0 0 1 .398-.511c.368-.523 1.356-1.737 3.281-2.903 2.546-1.542 6.644-2.893 6.644-2.893s4.902-1.484 7.25-2.373c2.61-.987 7.625-3.253 7.625-3.253l-.51.74.54-.763s-.414 5.488-.449 8.278c-.031 2.51.25 7.625.25 7.625s.133 4.312-.446 7.232c-.437 2.208-1.24 3.552-1.606 4.077a6.39 6.39 0 0 1-.344.548c-1.832 2.617-5.646 3.108-8.04 1.432-2.158-1.51-2.424-4.268-1.112-6.714l.044-.11c.584-1.368-.704-1.368-.947-1.538a.27.27 0 0 0-.244-.032c-1.119 2.428-2.698 5.185-3.317 5.928-7.027 9.24-18.27 15.87-29.713 15.87-22.084 0-34.732-18.883-34.732-39.974 0-14.062 5.622-30.332 21.683-39.372 4.216-2.611 10.038-4.419 17.466-4.419 14.656 0 25.296 9.843 25.296 23.703 0 2.21-2.81 4.8-5.621 4.6-12.85-.603-34.13-.603-41.157 0-1.003.2-2.007 1.405-2.409 2.41-.401 1.406-.401 3.837-.401 7.051 0 16.07 12.848 33.546 29.913 33.546 11.042 0 15.459-4.218 19.675-9.843.249-.332.589-.77.97-1.233zM333.65 62.426c-8.432 0-17.266 7.231-20.478 18.078 0 .402.401 1.607 1.004 1.607 8.03 0 19.674-.401 24.493-.401 5.019-.603 7.428-1.607 7.428-6.63-.201-7.23-7.83-12.654-12.447-12.654zm-65.55 61.467c.402-4.218 1.005-28.089 1.005-51.591 0-17.878 0-32.709-1.004-43.154-.402-4.018-.803-5.424-6.625-9.04-1.205-1.205-2.008-1.808-2.008-2.41 0-.804 1.004-1.808 2.008-2.21 5.019-2.611 20.076-7.231 22.686-7.231.401 0 1.204 1.406 1.204 3.214-.401 19.083-.803 36.927-.803 58.019 0 23.301.201 40.342.803 53.8.402 9.843.803 10.647 8.633 12.856 3.011 1.005 3.413 1.808 3.413 2.612 0 1.205-2.008 1.808-4.216 1.808-4.216 0-10.841-.804-18.47-.804-7.228 0-12.046.603-16.061.603-2.41 0-4.216-1.005-4.216-2.21 0-.803.602-1.607 3.011-2.21 8.633-2.008 10.038-3.816 10.64-12.052zm-17.5-61.859l1.239-.01c.02 0 .039.002.059.007l2.852-.007c.803 0 1.807 4.017 1.807 7.834 0 .804-1.205 2.611-2.41 2.611-.285 0-1.221-.007-2.685-.02-.075.013-.15.02-.225.02-.41 0-1.083-.014-1.953-.04-5.244-.05-14.123-.14-24.07-.24-.165.335-.277.765-.277 1.084l.2 40.576c0 7.232 1.607 12.455 4.417 15.066 2.209 2.21 7.83 3.616 10.64 3.616 3.414 0 6.626-1.005 9.637-2.612 1.004-.401 1.807-1.004 2.209-1.004.401 0 1.004.804 1.004 1.406 0 2.812-3.614 5.625-5.622 7.232-3.613 2.812-10.64 5.021-16.864 5.021-7.83 0-13.852-3.214-16.663-6.428-4.617-4.62-5.621-10.847-5.42-19.283.401-15.468 1.003-31.94 1.003-42.184 0-1.255-.48-2.19-1.154-2.662-18.018-.183-35.004-.351-37.392-.351-.402 0-.803 1.004-.803 1.607l.2 40.576c0 7.232 1.607 12.455 4.417 15.066 2.209 2.21 7.83 3.616 10.64 3.616 3.414 0 6.626-1.005 9.637-2.612 1.004-.401 1.807-1.004 2.209-1.004.401 0 1.004.804 1.004 1.406 0 2.812-3.614 5.625-5.622 7.232-3.613 2.812-10.64 5.021-16.864 5.021-7.83 0-13.852-3.214-16.663-6.428-4.617-4.62-5.621-10.847-5.42-19.283.401-15.468 1.003-31.94 1.003-42.184 0-1.406-.602-2.41-1.405-2.812-1.004-.402-3.011-1.005-5.42-1.607-.603 0-2.209-1.205-2.209-1.808 0-1.406 2.208-3.013 4.015-4.218 5.822-3.616 11.845-9.04 15.86-12.856 1.004-1.206 2.41-2.21 3.413-2.21.803 0 1.406 1.607 1.406 2.812v8.638c0 .402.401 1.607 1.004 1.607.544 0 17.667-.041 36.257-.086 4.781-3.41 9.432-7.628 12.728-10.761 1.004-1.206 2.41-2.21 3.413-2.21.803 0 1.406 1.607 1.406 2.812v8.638c0 .32.256 1.154.666 1.477l24.797-.06zm-139.194 8.828c-.803-.803-1.204-.803-1.204-2.008 0-.804 1.405-2.009 3.613-2.813 7.228-2.61 17.467-7.633 19.273-7.834.803 0 1.606 1.407 1.606 2.41-.401 3.817-.602 23.302-.602 37.163 0 18.48 0 24.707.402 30.332.2 4.82 2.409 6.026 8.833 7.633 3.012.602 3.815 1.607 3.815 2.41 0 1.406-1.406 2.21-4.417 2.21-5.22 0-11.243-.603-17.466-.603-7.429 0-10.64 1.005-15.66 1.005-3.011 0-4.015-1.005-4.015-2.01 0-1.004 1.205-1.807 4.015-2.41 5.02-1.205 7.83-3.013 8.432-7.633.402-4.017.603-14.262.603-29.93 0-10.044-.603-16.873-.804-19.686-.401-3.415-2.007-4.62-6.424-8.236zM137.34 34.1a34.141 34.141 0 0 0-5.876 5.58c-1.385 1.676-2.54 3.473-3.498 5.247a2.643 2.643 0 0 1-4.978 0c-.958-1.774-2.113-3.571-3.498-5.248a34.141 34.141 0 0 0-5.875-5.58 2.644 2.644 0 0 1 0-4.788 34.141 34.141 0 0 0 5.875-5.58c1.385-1.676 2.54-3.474 3.498-5.247a2.643 2.643 0 0 1 4.978 0c.958 1.773 2.113 3.571 3.498 5.248a34.141 34.141 0 0 0 5.876 5.579 2.644 2.644 0 0 1 0 4.789zM2.409 12.207c0-1.004 1.606-1.607 4.216-1.607 4.417 0 12.247.402 19.675.402 8.633 0 17.868-.402 23.89-.402 3.213 0 4.216 1.205 4.216 2.009 0 1.205-1.003 2.009-4.216 2.611-8.23 1.808-10.44 3.616-11.242 10.647-.402 6.026-1.004 15.467-1.004 57.45 0 20.89.602 30.332 1.004 36.76.602 8.235 2.409 11.048 10.44 11.65 15.057 1.005 25.898 1.206 33.125.201 6.826-.803 11.845-5.624 16.864-15.668 1.205-2.812 2.81-5.825 4.216-5.825 1.004 0 1.606 1.205 1.606 3.816 0 3.214-5.22 19.485-6.424 23.703-.402 1.005-2.008 2.41-6.625 2.41-20.277 0-48.986-.602-63.04-.602-9.837 0-19.072.804-24.492.804-3.213 0-4.618-1.005-4.618-2.41 0-.804 1.004-2.01 4.216-2.612 10.841-2.21 14.254-4.018 15.057-13.66.402-9.039.803-29.528.803-49.415 0-27.52 0-36.358-.2-43.59-.201-7.833-2.209-12.052-12.649-13.659-2.61-.401-4.818-1.205-4.818-3.013z" fill-rule="evenodd"/></svg>
